<svg width="61" height="15" viewBox="0 0 61 15" fill="none" xmlns="http://www.w3.org/2000/svg">
<path d="M15.2107 13.238L31.7522 13.238L32.9626 12.8794L38.342 12.8794L38.342 3.15171L25.8349 3.15171L23.9522 3.64482L15.2107 4.13793L10.4141 3.15171L10.4141 4.13793L10.4141 11.5794L15.2107 13.238Z" fill="#B4B4B4" style="fill:#B4B4B4;fill:color(display-p3 0.7042 0.7042 0.7042);fill-opacity:1;"/>
<path d="M1 11.6692L5.79661 11.6692L5.79661 5.25877L1 5.25877L1 11.6692Z" fill="white" stroke="#FFF7F7" style="fill:white;fill-opacity:1;stroke:#FFF7F7;stroke:color(display-p3 1.0000 0.9667 0.9667);stroke-opacity:1;"/>
<path d="M31.707 13.2829L32.6036 13.2829L35.1588 13.8208L39.5968 13.8208L39.5968 12.7898L56.1384 12.7898L56.1384 2.29997L35.4278 2.29997L35.4278 5.57243L36.7726 5.57243L36.7726 9.38282L35.1588 9.38282L31.707 13.2829Z" fill="#674444" style="fill:#674444;fill:color(display-p3 0.4042 0.2661 0.2661);fill-opacity:1;"/>
<path d="M48.6075 13.8657L39.5522 13.8657L39.5522 11.8485L49.1455 11.8485L49.9524 11.0416L50.9834 11.0416L52.0145 12.3864L56.0938 12.3864L56.0938 2.43455L52.0145 2.43455L50.9834 3.95871L49.9524 3.95871L49.1455 3.24146L39.5522 3.24146L39.5522 1.40351L48.6075 1.4035L49.9524 3.24146L50.9834 3.24146L52.0145 1.00005L57.7076 1.00005C60.218 1.00005 60.218 13.8657 57.7076 13.8657L52.0145 13.8657L50.9834 11.8485L49.9524 11.8485L48.6075 13.8657Z" fill="black" stroke="black" style="fill:black;fill-opacity:1;stroke:black;stroke-opacity:1;"/>
<path d="M38.9247 13.9553L32.7832 13.9553L32.7832 13.4174L34.0384 11.8484L36.9522 11.8484L38.9247 13.4174L38.9247 13.9553Z" fill="black" stroke="black" style="fill:black;fill-opacity:1;stroke:black;stroke-opacity:1;"/>
<path d="M26.0588 2.38978L26.0588 5.1243L21.3967 5.1243L21.0829 5.43809L19.9173 5.43809L19.3794 4.90015L15.7035 4.90015L14.9862 5.70706L13.4621 5.70706L13.2379 5.16912L11.6241 5.16912L11.6241 11.4451L13.4621 11.4451L13.8207 12.1175L16.8242 12.1175L16.8242 11.4451L18.438 11.4451L18.438 13.7761L14.9862 13.7761L13.8207 13.0589L12.7448 13.0589L11.6241 13.7761L5.84131 13.7761L5.84131 2.88289L14.3138 2.88289L15.2104 3.376L15.7035 2.47944L20.276 2.47944L21.0829 3.68979L21.8001 2.38978L26.0588 2.38978Z" fill="black" stroke="black" style="fill:black;fill-opacity:1;stroke:black;stroke-opacity:1;"/>
</svg>
